<svg xmlns="http://www.w3.org/2000/svg" xmlns:xlink="http://www.w3.org/1999/xlink" width="340" zoomAndPan="magnify" viewBox="0 0 255 425.249985" height="566" preserveAspectRatio="xMidYMid meet" version="1.0"><defs><clipPath id="9c31cb62bf"><path d="M 13.058594 132.257812 L 127.644531 132.257812 L 127.644531 331.371094 L 13.058594 331.371094 Z M 13.058594 132.257812 " clip-rule="nonzero"/></clipPath><clipPath id="678f732b03"><path d="M 127.253906 132.257812 L 242.15625 132.257812 L 242.15625 331.371094 L 127.253906 331.371094 Z M 127.253906 132.257812 " clip-rule="nonzero"/></clipPath><clipPath id="45113b6692"><path d="M 13.058594 75.34375 L 242.15625 75.34375 L 242.15625 189.960938 L 13.058594 189.960938 Z M 13.058594 75.34375 " clip-rule="nonzero"/></clipPath></defs><g clip-path="url(#9c31cb62bf)"><path fill="#000000" d="M 127.613281 331.371094 L 13.058594 274.0625 L 13.058594 132.648438 L 127.613281 189.957031 L 127.613281 331.371094 " fill-opacity="1" fill-rule="nonzero"/></g><g clip-path="url(#678f732b03)"><path fill="#333333" d="M 242.171875 274.0625 L 127.613281 331.371094 L 127.613281 189.957031 L 242.171875 132.648438 L 242.171875 274.0625 " fill-opacity="1" fill-rule="nonzero"/></g><g clip-path="url(#45113b6692)"><path fill="#666666" d="M 242.171875 132.648438 L 127.613281 189.957031 L 13.058594 132.648438 L 127.613281 75.34375 L 242.171875 132.648438 " fill-opacity="1" fill-rule="nonzero"/></g><path fill="#ffffff" d="M 54.648438 267.421875 C 54.648438 264.453125 55.65625 262.511719 57.679688 261.59375 C 59.703125 260.679688 62.292969 261.011719 65.449219 262.589844 C 68.601562 264.167969 71.191406 266.425781 73.210938 269.363281 C 75.234375 272.304688 76.246094 275.257812 76.246094 278.226562 C 76.246094 281.152344 75.253906 283.070312 73.28125 283.988281 C 71.300781 284.902344 68.6875 284.550781 65.449219 282.929688 C 62.199219 281.304688 59.589844 279.046875 57.613281 276.152344 C 55.636719 273.257812 54.648438 270.347656 54.648438 267.421875 Z M 56.578125 247.949219 C 56.578125 241.71875 57.335938 237.136719 58.847656 234.199219 C 60.359375 231.261719 63.125 229.003906 67.148438 227.433594 C 71.164062 225.863281 73.84375 224.289062 75.179688 222.707031 C 76.511719 221.125 77.179688 219.089844 77.179688 216.59375 C 77.179688 209.066406 73.710938 203.566406 66.78125 200.101562 C 63.488281 198.453125 60.855469 198.152344 58.878906 199.191406 C 56.902344 200.226562 55.867188 202.507812 55.777344 206.027344 L 36.445312 196.355469 C 36.535156 187.902344 39.28125 182.621094 44.679688 180.515625 C 50.082031 178.414062 57.445312 179.691406 66.78125 184.363281 C 76.203125 189.074219 83.511719 195.015625 88.714844 202.175781 C 93.914062 209.339844 96.515625 217.082031 96.515625 225.402344 C 96.515625 229.1875 95.667969 232.335938 93.980469 234.851562 C 92.289062 237.363281 89.332031 239.613281 85.113281 241.59375 L 79.714844 244.035156 C 76.335938 245.59375 74.402344 248.429688 73.910156 252.546875 L 73.648438 256.488281 L 56.578125 247.949219 " fill-opacity="1" fill-rule="nonzero"/><path fill="#ffffff" d="M 173.058594 278.976562 C 173.058594 276.007812 174.070312 273.054688 176.089844 270.117188 C 178.113281 267.175781 180.707031 264.917969 183.863281 263.339844 C 187.011719 261.761719 189.605469 261.429688 191.625 262.34375 C 193.648438 263.261719 194.660156 265.203125 194.660156 268.171875 C 194.660156 271.097656 193.667969 274.007812 191.691406 276.898438 C 189.710938 279.796875 187.101562 282.058594 183.863281 283.675781 C 180.613281 285.304688 178.003906 285.65625 176.027344 284.738281 C 174.046875 283.824219 173.058594 281.902344 173.058594 278.976562 Z M 174.992188 257.570312 C 174.992188 251.339844 175.746094 246 177.257812 241.550781 C 178.769531 237.101562 181.539062 232.078125 185.558594 226.484375 C 189.578125 220.890625 192.257812 216.636719 193.59375 213.71875 C 194.925781 210.804688 195.59375 208.097656 195.59375 205.601562 C 195.59375 198.078125 192.125 196.050781 185.191406 199.515625 C 181.902344 201.164062 179.269531 203.496094 177.292969 206.511719 C 175.3125 209.527344 174.28125 212.839844 174.191406 216.449219 L 154.859375 226.121094 C 154.945312 217.578125 157.691406 209.550781 163.09375 202.042969 C 168.496094 194.535156 175.859375 188.449219 185.191406 183.777344 C 194.613281 179.066406 201.925781 177.6875 207.125 179.648438 C 212.324219 181.609375 214.925781 186.75 214.925781 195.070312 C 214.925781 198.855469 214.082031 202.851562 212.394531 207.054688 C 210.703125 211.257812 207.746094 216.464844 203.527344 222.667969 L 198.125 230.511719 C 194.75 235.449219 192.8125 240.222656 192.324219 244.828125 L 192.058594 249.03125 L 174.992188 257.570312 " fill-opacity="1" fill-rule="nonzero"/><path fill="#ffffff" d="M 156.753906 153.914062 C 153.910156 152.488281 152.535156 150.835938 152.625 148.941406 C 152.71875 147.050781 154.277344 145.347656 157.300781 143.835938 C 160.316406 142.324219 163.722656 141.546875 167.503906 141.5 C 171.285156 141.453125 174.601562 142.140625 177.441406 143.566406 C 180.242188 144.964844 181.605469 146.597656 181.535156 148.457031 C 181.46875 150.316406 179.875 152.027344 176.773438 153.578125 C 173.664062 155.132812 170.253906 155.929688 166.53125 155.964844 C 162.816406 155.996094 159.554688 155.316406 156.753906 153.914062 Z M 139.035156 143.195312 C 133.070312 140.214844 129.042969 137.472656 126.953125 134.980469 C 124.863281 132.488281 124.03125 129.417969 124.449219 125.773438 C 124.871094 122.132812 124.644531 119.453125 123.769531 117.738281 C 122.890625 116.023438 121.261719 114.566406 118.871094 113.371094 C 111.667969 109.765625 104.742188 109.625 98.105469 112.949219 C 94.953125 114.523438 93.402344 116.269531 93.449219 118.1875 C 93.496094 120.109375 95.183594 121.945312 98.511719 123.691406 L 79.996094 132.957031 C 71.941406 128.84375 68.199219 124.339844 68.773438 119.449219 C 69.34375 114.558594 74.09375 109.878906 83.035156 105.40625 C 92.058594 100.894531 101.246094 98.484375 110.59375 98.175781 C 119.941406 97.871094 128.597656 99.710938 136.566406 103.695312 C 140.1875 105.507812 142.796875 107.625 144.398438 110.042969 C 145.996094 112.460938 146.734375 115.664062 146.613281 119.644531 L 146.363281 124.695312 C 146.238281 127.871094 148.027344 130.617188 151.738281 132.941406 L 155.382812 135.019531 L 139.035156 143.195312 " fill-opacity="1" fill-rule="nonzero"/></svg>